<svg xmlns="http://www.w3.org/2000/svg" xmlns:xlink="http://www.w3.org/1999/xlink" width="1634" zoomAndPan="magnify" viewBox="0 0 1225.5 224.249992" height="299" preserveAspectRatio="xMidYMid meet" version="1.0"><defs><g/></defs><g fill="#68e831" fill-opacity="1"><g transform="translate(8.231489, 176.569588)"><g><path d="M 2.691406 0 L 13.996094 0 L 13.996094 -34.726562 L 18.394531 0 L 24.40625 0 L 28.894531 -34.726562 L 28.894531 0 L 40.199219 0 L 40.199219 -62.808594 L 25.84375 -62.808594 L 21.445312 -34.816406 L 17.046875 -62.808594 L 2.691406 -62.808594 Z M 2.691406 0 "/></g></g></g><g fill="#68e831" fill-opacity="1"><g transform="translate(51.119997, 176.569588)"><g><path d="M 2.691406 0 L 13.996094 0 L 13.996094 -20.007812 L 17.765625 -20.007812 L 17.765625 0 L 29.070312 0 L 29.070312 -53.835938 C 29.070312 -58.863281 25.125 -62.808594 20.097656 -62.808594 L 11.664062 -62.808594 C 6.640625 -62.808594 2.691406 -58.863281 2.691406 -53.835938 Z M 13.996094 -29.519531 L 13.996094 -51.503906 C 13.996094 -52.582031 14.804688 -53.390625 15.882812 -53.390625 C 16.957031 -53.390625 17.765625 -52.582031 17.765625 -51.503906 L 17.765625 -29.519531 Z M 13.996094 -29.519531 "/></g></g></g><g fill="#68e831" fill-opacity="1"><g transform="translate(82.882614, 176.569588)"><g><path d="M 2.691406 0 L 13.996094 0 L 13.996094 -50.429688 L 2.691406 -50.429688 Z M 2.691406 -54.285156 L 13.996094 -54.285156 L 13.996094 -62.808594 L 2.691406 -62.808594 Z M 2.691406 -54.285156 "/></g></g></g><g fill="#68e831" fill-opacity="1"><g transform="translate(99.571445, 176.569588)"><g><path d="M 11.664062 0 L 20.097656 0 C 25.125 0 29.070312 -3.949219 29.070312 -8.972656 L 29.070312 -53.835938 C 29.070312 -58.863281 25.125 -62.808594 20.097656 -62.808594 L 11.664062 -62.808594 C 6.640625 -62.808594 2.691406 -58.863281 2.691406 -53.835938 L 2.691406 -8.972656 C 2.691406 -3.949219 6.640625 0 11.664062 0 Z M 15.882812 -9.511719 C 14.804688 -9.511719 13.996094 -10.320312 13.996094 -11.394531 L 13.996094 -51.503906 C 13.996094 -52.582031 14.804688 -53.390625 15.882812 -53.390625 C 16.957031 -53.390625 17.765625 -52.582031 17.765625 -51.503906 L 17.765625 -11.394531 C 17.765625 -10.320312 16.957031 -9.511719 15.882812 -9.511719 Z M 15.882812 -9.511719 "/></g></g></g><g fill="#68e831" fill-opacity="1"><g transform="translate(131.334062, 176.569588)"><g><path d="M 2.691406 0 L 13.996094 0 L 13.996094 -20.457031 L 17.765625 -20.457031 L 17.765625 0 L 29.070312 0 L 29.070312 -18.664062 C 28.804688 -21.804688 26.917969 -24.316406 24.136719 -25.664062 C 26.917969 -26.828125 28.804688 -29.519531 29.070312 -32.660156 L 29.070312 -53.835938 C 29.070312 -58.863281 25.125 -62.808594 20.097656 -62.808594 L 2.691406 -62.808594 Z M 13.996094 -29.96875 L 13.996094 -53.390625 L 15.882812 -53.390625 C 16.957031 -53.390625 17.765625 -52.582031 17.765625 -51.503906 L 17.765625 -31.855469 C 17.765625 -30.777344 16.957031 -29.96875 15.882812 -29.96875 Z M 13.996094 -29.96875 "/></g></g></g><g fill="#68e831" fill-opacity="1"><g transform="translate(163.096679, 176.569588)"><g/></g></g><g fill="#68e831" fill-opacity="1"><g transform="translate(182.836156, 176.569588)"><g><path d="M 2.691406 0 L 13.996094 0 L 13.996094 -20.457031 L 20.097656 -20.457031 C 25.125 -20.457031 29.070312 -24.40625 29.070312 -29.429688 L 29.070312 -53.835938 C 29.070312 -58.863281 25.125 -62.808594 20.097656 -62.808594 L 2.691406 -62.808594 Z M 13.996094 -29.96875 L 13.996094 -53.390625 L 15.882812 -53.390625 C 16.957031 -53.390625 17.765625 -52.582031 17.765625 -51.503906 L 17.765625 -31.855469 C 17.765625 -30.777344 16.957031 -29.96875 15.882812 -29.96875 Z M 13.996094 -29.96875 "/></g></g></g><g fill="#68e831" fill-opacity="1"><g transform="translate(214.598774, 176.569588)"><g><path d="M 2.691406 0 L 13.996094 0 L 13.996094 -20.457031 L 17.765625 -20.457031 L 17.765625 0 L 29.070312 0 L 29.070312 -18.664062 C 28.804688 -21.804688 26.917969 -24.316406 24.136719 -25.664062 C 26.917969 -26.828125 28.804688 -29.519531 29.070312 -32.660156 L 29.070312 -53.835938 C 29.070312 -58.863281 25.125 -62.808594 20.097656 -62.808594 L 2.691406 -62.808594 Z M 13.996094 -29.96875 L 13.996094 -53.390625 L 15.882812 -53.390625 C 16.957031 -53.390625 17.765625 -52.582031 17.765625 -51.503906 L 17.765625 -31.855469 C 17.765625 -30.777344 16.957031 -29.96875 15.882812 -29.96875 Z M 13.996094 -29.96875 "/></g></g></g><g fill="#68e831" fill-opacity="1"><g transform="translate(246.361379, 176.569588)"><g><path d="M 11.664062 0 L 20.097656 0 C 25.125 0 29.070312 -3.949219 29.070312 -8.972656 L 29.070312 -53.835938 C 29.070312 -58.863281 25.125 -62.808594 20.097656 -62.808594 L 11.664062 -62.808594 C 6.640625 -62.808594 2.691406 -58.863281 2.691406 -53.835938 L 2.691406 -8.972656 C 2.691406 -3.949219 6.640625 0 11.664062 0 Z M 15.882812 -9.511719 C 14.804688 -9.511719 13.996094 -10.320312 13.996094 -11.394531 L 13.996094 -51.503906 C 13.996094 -52.582031 14.804688 -53.390625 15.882812 -53.390625 C 16.957031 -53.390625 17.765625 -52.582031 17.765625 -51.503906 L 17.765625 -11.394531 C 17.765625 -10.320312 16.957031 -9.511719 15.882812 -9.511719 Z M 15.882812 -9.511719 "/></g></g></g><g fill="#68e831" fill-opacity="1"><g transform="translate(278.124008, 176.569588)"><g><path d="M 11.664062 0 L 13.460938 0 C 15.074219 -0.359375 16.511719 -1.167969 17.765625 -2.421875 L 17.765625 0 L 29.070312 0 L 29.070312 -36.339844 L 15.972656 -36.339844 L 15.972656 -26.828125 L 17.765625 -26.828125 L 17.765625 -11.394531 C 17.765625 -10.320312 16.957031 -9.511719 15.882812 -9.511719 C 14.804688 -9.511719 13.996094 -10.320312 13.996094 -11.394531 L 13.996094 -51.503906 C 13.996094 -52.582031 14.804688 -53.390625 15.882812 -53.390625 C 16.957031 -53.390625 17.765625 -52.582031 17.765625 -51.503906 L 17.765625 -40.46875 L 29.070312 -40.46875 L 29.070312 -53.835938 C 29.070312 -58.863281 25.125 -62.808594 20.097656 -62.808594 L 11.664062 -62.808594 C 6.640625 -62.808594 2.691406 -58.863281 2.691406 -53.835938 L 2.691406 -8.972656 C 2.691406 -3.949219 6.640625 0 11.664062 0 Z M 11.664062 0 "/></g></g></g><g fill="#68e831" fill-opacity="1"><g transform="translate(309.886636, 176.569588)"><g><path d="M 2.691406 0 L 13.996094 0 L 13.996094 -20.457031 L 17.765625 -20.457031 L 17.765625 0 L 29.070312 0 L 29.070312 -18.664062 C 28.804688 -21.804688 26.917969 -24.316406 24.136719 -25.664062 C 26.917969 -26.828125 28.804688 -29.519531 29.070312 -32.660156 L 29.070312 -53.835938 C 29.070312 -58.863281 25.125 -62.808594 20.097656 -62.808594 L 2.691406 -62.808594 Z M 13.996094 -29.96875 L 13.996094 -53.390625 L 15.882812 -53.390625 C 16.957031 -53.390625 17.765625 -52.582031 17.765625 -51.503906 L 17.765625 -31.855469 C 17.765625 -30.777344 16.957031 -29.96875 15.882812 -29.96875 Z M 13.996094 -29.96875 "/></g></g></g><g fill="#68e831" fill-opacity="1"><g transform="translate(341.649264, 176.569588)"><g><path d="M 2.691406 0 L 13.996094 0 L 13.996094 -20.007812 L 17.765625 -20.007812 L 17.765625 0 L 29.070312 0 L 29.070312 -53.835938 C 29.070312 -58.863281 25.125 -62.808594 20.097656 -62.808594 L 11.664062 -62.808594 C 6.640625 -62.808594 2.691406 -58.863281 2.691406 -53.835938 Z M 13.996094 -29.519531 L 13.996094 -51.503906 C 13.996094 -52.582031 14.804688 -53.390625 15.882812 -53.390625 C 16.957031 -53.390625 17.765625 -52.582031 17.765625 -51.503906 L 17.765625 -29.519531 Z M 13.996094 -29.519531 "/></g></g></g><g fill="#68e831" fill-opacity="1"><g transform="translate(373.411893, 176.569588)"><g><path d="M 2.691406 0 L 13.996094 0 L 13.996094 -34.726562 L 18.394531 0 L 24.40625 0 L 28.894531 -34.726562 L 28.894531 0 L 40.199219 0 L 40.199219 -62.808594 L 25.84375 -62.808594 L 21.445312 -34.816406 L 17.046875 -62.808594 L 2.691406 -62.808594 Z M 2.691406 0 "/></g></g></g><g fill="#68e831" fill-opacity="1"><g transform="translate(416.300401, 176.569588)"><g><path d="M 2.691406 0 L 13.996094 0 L 13.996094 -20.007812 L 17.765625 -20.007812 L 17.765625 0 L 29.070312 0 L 29.070312 -53.835938 C 29.070312 -58.863281 25.125 -62.808594 20.097656 -62.808594 L 11.664062 -62.808594 C 6.640625 -62.808594 2.691406 -58.863281 2.691406 -53.835938 Z M 13.996094 -29.519531 L 13.996094 -51.503906 C 13.996094 -52.582031 14.804688 -53.390625 15.882812 -53.390625 C 16.957031 -53.390625 17.765625 -52.582031 17.765625 -51.503906 L 17.765625 -29.519531 Z M 13.996094 -29.519531 "/></g></g></g><g fill="#68e831" fill-opacity="1"><g transform="translate(448.063029, 176.569588)"><g/></g></g><g fill="#68e831" fill-opacity="1"><g transform="translate(467.802494, 176.569588)"><g><path d="M 2.691406 0 L 20.097656 0 C 25.125 0 29.070312 -3.949219 29.070312 -8.972656 L 29.070312 -53.835938 C 29.070312 -58.863281 25.125 -62.808594 20.097656 -62.808594 L 2.691406 -62.808594 Z M 13.996094 -9.511719 L 13.996094 -53.390625 L 15.882812 -53.390625 C 16.957031 -53.390625 17.765625 -52.582031 17.765625 -51.503906 L 17.765625 -11.394531 C 17.765625 -10.320312 16.957031 -9.511719 15.882812 -9.511719 Z M 13.996094 -9.511719 "/></g></g></g><g fill="#68e831" fill-opacity="1"><g transform="translate(499.565123, 176.569588)"><g><path d="M 2.691406 0 L 26.46875 0 L 26.46875 -9.511719 L 13.996094 -9.511719 L 13.996094 -26.828125 L 22.882812 -26.828125 L 22.882812 -36.339844 L 13.996094 -36.339844 L 13.996094 -53.300781 L 26.46875 -53.300781 L 26.46875 -62.808594 L 2.691406 -62.808594 Z M 2.691406 0 "/></g></g></g><g fill="#68e831" fill-opacity="1"><g transform="translate(527.379867, 176.569588)"><g/></g></g><g fill="#68e831" fill-opacity="1"><g transform="translate(547.119332, 176.569588)"><g><path d="M 2.691406 0 L 26.46875 0 L 26.46875 -9.511719 L 13.996094 -9.511719 L 13.996094 -26.828125 L 22.882812 -26.828125 L 22.882812 -36.339844 L 13.996094 -36.339844 L 13.996094 -53.300781 L 26.46875 -53.300781 L 26.46875 -62.808594 L 2.691406 -62.808594 Z M 2.691406 0 "/></g></g></g><g fill="#68e831" fill-opacity="1"><g transform="translate(574.934031, 176.569588)"><g><path d="M 2.691406 0 L 13.996094 0 L 13.996094 -34.726562 L 18.394531 0 L 24.40625 0 L 28.894531 -34.726562 L 28.894531 0 L 40.199219 0 L 40.199219 -62.808594 L 25.84375 -62.808594 L 21.445312 -34.816406 L 17.046875 -62.808594 L 2.691406 -62.808594 Z M 2.691406 0 "/></g></g></g><g fill="#68e831" fill-opacity="1"><g transform="translate(617.822539, 176.569588)"><g><path d="M 2.691406 0 L 13.996094 0 L 13.996094 -20.007812 L 17.765625 -20.007812 L 17.765625 0 L 29.070312 0 L 29.070312 -53.835938 C 29.070312 -58.863281 25.125 -62.808594 20.097656 -62.808594 L 11.664062 -62.808594 C 6.640625 -62.808594 2.691406 -58.863281 2.691406 -53.835938 Z M 13.996094 -29.519531 L 13.996094 -51.503906 C 13.996094 -52.582031 14.804688 -53.390625 15.882812 -53.390625 C 16.957031 -53.390625 17.765625 -52.582031 17.765625 -51.503906 L 17.765625 -29.519531 Z M 13.996094 -29.519531 "/></g></g></g><g fill="#68e831" fill-opacity="1"><g transform="translate(649.585167, 176.569588)"><g><path d="M 11.664062 0 L 13.460938 0 C 15.074219 -0.359375 16.511719 -1.167969 17.765625 -2.421875 L 17.765625 0 L 29.070312 0 L 29.070312 -36.339844 L 15.972656 -36.339844 L 15.972656 -26.828125 L 17.765625 -26.828125 L 17.765625 -11.394531 C 17.765625 -10.320312 16.957031 -9.511719 15.882812 -9.511719 C 14.804688 -9.511719 13.996094 -10.320312 13.996094 -11.394531 L 13.996094 -51.503906 C 13.996094 -52.582031 14.804688 -53.390625 15.882812 -53.390625 C 16.957031 -53.390625 17.765625 -52.582031 17.765625 -51.503906 L 17.765625 -40.46875 L 29.070312 -40.46875 L 29.070312 -53.835938 C 29.070312 -58.863281 25.125 -62.808594 20.097656 -62.808594 L 11.664062 -62.808594 C 6.640625 -62.808594 2.691406 -58.863281 2.691406 -53.835938 L 2.691406 -8.972656 C 2.691406 -3.949219 6.640625 0 11.664062 0 Z M 11.664062 0 "/></g></g></g><g fill="#68e831" fill-opacity="1"><g transform="translate(681.347795, 176.569588)"><g><path d="M 2.691406 0 L 13.996094 0 L 13.996094 -20.457031 L 17.765625 -20.457031 L 17.765625 0 L 29.070312 0 L 29.070312 -18.664062 C 28.804688 -21.804688 26.917969 -24.316406 24.136719 -25.664062 C 26.917969 -26.828125 28.804688 -29.519531 29.070312 -32.660156 L 29.070312 -53.835938 C 29.070312 -58.863281 25.125 -62.808594 20.097656 -62.808594 L 2.691406 -62.808594 Z M 13.996094 -29.96875 L 13.996094 -53.390625 L 15.882812 -53.390625 C 16.957031 -53.390625 17.765625 -52.582031 17.765625 -51.503906 L 17.765625 -31.855469 C 17.765625 -30.777344 16.957031 -29.96875 15.882812 -29.96875 Z M 13.996094 -29.96875 "/></g></g></g><g fill="#68e831" fill-opacity="1"><g transform="translate(713.110424, 176.569588)"><g><path d="M 2.691406 0 L 26.46875 0 L 26.46875 -9.511719 L 13.996094 -9.511719 L 13.996094 -26.828125 L 22.882812 -26.828125 L 22.882812 -36.339844 L 13.996094 -36.339844 L 13.996094 -53.300781 L 26.46875 -53.300781 L 26.46875 -62.808594 L 2.691406 -62.808594 Z M 2.691406 0 "/></g></g></g><g fill="#68e831" fill-opacity="1"><g transform="translate(740.925168, 176.569588)"><g><path d="M 11.664062 0 L 20.097656 0 C 25.125 0 29.070312 -3.949219 29.070312 -8.972656 L 29.070312 -26.648438 L 17.765625 -26.648438 L 17.765625 -11.394531 C 17.765625 -10.320312 16.957031 -9.511719 15.882812 -9.511719 C 14.804688 -9.511719 13.996094 -10.320312 13.996094 -11.394531 L 13.996094 -51.503906 C 13.996094 -52.582031 14.804688 -53.390625 15.882812 -53.390625 C 16.957031 -53.390625 17.765625 -52.582031 17.765625 -51.503906 L 17.765625 -36.160156 L 29.070312 -36.160156 L 29.070312 -53.835938 C 29.070312 -58.863281 25.125 -62.808594 20.097656 -62.808594 L 11.664062 -62.808594 C 6.640625 -62.808594 2.691406 -58.863281 2.691406 -53.835938 L 2.691406 -8.972656 C 2.691406 -3.949219 6.640625 0 11.664062 0 Z M 11.664062 0 "/></g></g></g><g fill="#68e831" fill-opacity="1"><g transform="translate(772.687796, 176.569588)"><g><path d="M 2.691406 0 L 13.996094 0 L 13.996094 -50.429688 L 2.691406 -50.429688 Z M 2.691406 -54.285156 L 13.996094 -54.285156 L 13.996094 -62.808594 L 2.691406 -62.808594 Z M 2.691406 -54.285156 "/></g></g></g><g fill="#68e831" fill-opacity="1"><g transform="translate(789.376662, 176.569588)"><g><path d="M 2.691406 0 L 13.996094 0 L 13.996094 -34.726562 L 18.394531 0 L 24.40625 0 L 28.894531 -34.726562 L 28.894531 0 L 40.199219 0 L 40.199219 -62.808594 L 25.84375 -62.808594 L 21.445312 -34.816406 L 17.046875 -62.808594 L 2.691406 -62.808594 Z M 2.691406 0 "/></g></g></g><g fill="#68e831" fill-opacity="1"><g transform="translate(832.26517, 176.569588)"><g><path d="M 2.691406 0 L 26.46875 0 L 26.46875 -9.511719 L 13.996094 -9.511719 L 13.996094 -26.828125 L 22.882812 -26.828125 L 22.882812 -36.339844 L 13.996094 -36.339844 L 13.996094 -53.300781 L 26.46875 -53.300781 L 26.46875 -62.808594 L 2.691406 -62.808594 Z M 2.691406 0 "/></g></g></g><g fill="#68e831" fill-opacity="1"><g transform="translate(860.079914, 176.569588)"><g><path d="M 2.691406 0 L 13.996094 0 L 13.996094 -27.816406 L 18.394531 0 L 29.070312 0 L 29.070312 -62.808594 L 17.675781 -62.808594 L 17.675781 -34.996094 L 13.191406 -62.808594 L 2.691406 -62.808594 Z M 2.691406 0 "/></g></g></g><g fill="#68e831" fill-opacity="1"><g transform="translate(891.842542, 176.569588)"><g><path d="M 7.628906 0 L 18.933594 0 L 18.933594 -53.300781 L 25.214844 -53.300781 L 25.214844 -62.808594 L 1.347656 -62.808594 L 1.347656 -53.300781 L 7.628906 -53.300781 Z M 7.628906 0 "/></g></g></g><g fill="#68e831" fill-opacity="1"><g transform="translate(918.401117, 176.569588)"><g><path d="M 11.664062 0 L 20.097656 0 C 25.125 0 29.070312 -3.949219 29.070312 -8.972656 L 29.070312 -53.835938 C 29.070312 -58.863281 25.125 -62.808594 20.097656 -62.808594 L 11.664062 -62.808594 C 6.640625 -62.808594 2.691406 -58.863281 2.691406 -53.835938 L 2.691406 -8.972656 C 2.691406 -3.949219 6.640625 0 11.664062 0 Z M 15.882812 -9.511719 C 14.804688 -9.511719 13.996094 -10.320312 13.996094 -11.394531 L 13.996094 -51.503906 C 13.996094 -52.582031 14.804688 -53.390625 15.882812 -53.390625 C 16.957031 -53.390625 17.765625 -52.582031 17.765625 -51.503906 L 17.765625 -11.394531 C 17.765625 -10.320312 16.957031 -9.511719 15.882812 -9.511719 Z M 15.882812 -9.511719 "/></g></g></g><g fill="#68e831" fill-opacity="1"><g transform="translate(950.163746, 176.569588)"><g/></g></g><g fill="#68e831" fill-opacity="1"><g transform="translate(969.903256, 176.569588)"><g><path d="M 2.691406 0 L 20.097656 0 C 25.125 0 29.070312 -3.949219 29.070312 -8.972656 L 29.070312 -53.835938 C 29.070312 -58.863281 25.125 -62.808594 20.097656 -62.808594 L 2.691406 -62.808594 Z M 13.996094 -9.511719 L 13.996094 -53.390625 L 15.882812 -53.390625 C 16.957031 -53.390625 17.765625 -52.582031 17.765625 -51.503906 L 17.765625 -11.394531 C 17.765625 -10.320312 16.957031 -9.511719 15.882812 -9.511719 Z M 13.996094 -9.511719 "/></g></g></g><g fill="#68e831" fill-opacity="1"><g transform="translate(1001.665885, 176.569588)"><g><path d="M 11.664062 0 L 20.097656 0 C 25.125 0 29.070312 -3.949219 29.070312 -8.972656 L 29.070312 -53.835938 C 29.070312 -58.863281 25.125 -62.808594 20.097656 -62.808594 L 11.664062 -62.808594 C 6.640625 -62.808594 2.691406 -58.863281 2.691406 -53.835938 L 2.691406 -8.972656 C 2.691406 -3.949219 6.640625 0 11.664062 0 Z M 15.882812 -9.511719 C 14.804688 -9.511719 13.996094 -10.320312 13.996094 -11.394531 L 13.996094 -51.503906 C 13.996094 -52.582031 14.804688 -53.390625 15.882812 -53.390625 C 16.957031 -53.390625 17.765625 -52.582031 17.765625 -51.503906 L 17.765625 -11.394531 C 17.765625 -10.320312 16.957031 -9.511719 15.882812 -9.511719 Z M 15.882812 -9.511719 "/></g></g></g><g fill="#68e831" fill-opacity="1"><g transform="translate(1033.428513, 176.569588)"><g/></g></g><g fill="#68e831" fill-opacity="1"><g transform="translate(1053.168024, 176.569588)"><g><path d="M 2.691406 0 L 20.097656 0 C 25.125 0 29.070312 -3.949219 29.070312 -8.972656 L 29.070312 -26.019531 C 29.070312 -29.339844 27.007812 -32.121094 24.136719 -33.46875 C 27.007812 -34.816406 29.070312 -37.6875 29.070312 -41.007812 L 29.070312 -53.835938 C 29.070312 -58.863281 25.125 -62.808594 20.097656 -62.808594 L 2.691406 -62.808594 Z M 13.996094 -9.511719 L 13.996094 -28.714844 L 15.882812 -28.714844 C 16.957031 -28.714844 17.765625 -27.90625 17.765625 -26.828125 L 17.765625 -11.394531 C 17.765625 -10.320312 16.957031 -9.511719 15.882812 -9.511719 Z M 13.996094 -38.222656 L 13.996094 -53.390625 L 15.882812 -53.390625 C 16.957031 -53.390625 17.765625 -52.582031 17.765625 -51.503906 L 17.765625 -40.109375 C 17.765625 -39.03125 16.957031 -38.222656 15.882812 -38.222656 Z M 13.996094 -38.222656 "/></g></g></g><g fill="#68e831" fill-opacity="1"><g transform="translate(1084.930652, 176.569588)"><g><path d="M 2.691406 0 L 13.996094 0 L 13.996094 -20.457031 L 17.765625 -20.457031 L 17.765625 0 L 29.070312 0 L 29.070312 -18.664062 C 28.804688 -21.804688 26.917969 -24.316406 24.136719 -25.664062 C 26.917969 -26.828125 28.804688 -29.519531 29.070312 -32.660156 L 29.070312 -53.835938 C 29.070312 -58.863281 25.125 -62.808594 20.097656 -62.808594 L 2.691406 -62.808594 Z M 13.996094 -29.96875 L 13.996094 -53.390625 L 15.882812 -53.390625 C 16.957031 -53.390625 17.765625 -52.582031 17.765625 -51.503906 L 17.765625 -31.855469 C 17.765625 -30.777344 16.957031 -29.96875 15.882812 -29.96875 Z M 13.996094 -29.96875 "/></g></g></g><g fill="#68e831" fill-opacity="1"><g transform="translate(1116.69328, 176.569588)"><g><path d="M 2.691406 0 L 13.996094 0 L 13.996094 -20.007812 L 17.765625 -20.007812 L 17.765625 0 L 29.070312 0 L 29.070312 -53.835938 C 29.070312 -58.863281 25.125 -62.808594 20.097656 -62.808594 L 11.664062 -62.808594 C 6.640625 -62.808594 2.691406 -58.863281 2.691406 -53.835938 Z M 13.996094 -29.519531 L 13.996094 -51.503906 C 13.996094 -52.582031 14.804688 -53.390625 15.882812 -53.390625 C 16.957031 -53.390625 17.765625 -52.582031 17.765625 -51.503906 L 17.765625 -29.519531 Z M 13.996094 -29.519531 "/></g></g></g><g fill="#68e831" fill-opacity="1"><g transform="translate(1148.455909, 176.569588)"><g><path d="M 10.320312 0 L 18.753906 0 C 23.777344 0 27.726562 -3.949219 27.726562 -8.972656 L 27.726562 -22.523438 C 27.726562 -26.738281 26.289062 -30.507812 22.703125 -32.75 L 14.894531 -38.046875 C 13.460938 -39.03125 12.652344 -40.199219 12.652344 -42.351562 L 12.652344 -51.503906 C 12.652344 -52.582031 13.460938 -53.390625 14.535156 -53.390625 C 15.613281 -53.390625 16.421875 -52.582031 16.421875 -51.503906 L 16.421875 -41.273438 L 27.726562 -41.273438 L 27.726562 -53.835938 C 27.726562 -58.863281 23.777344 -62.808594 18.753906 -62.808594 L 10.320312 -62.808594 C 5.292969 -62.808594 1.347656 -58.863281 1.347656 -53.835938 L 1.347656 -41.1875 C 1.347656 -35.890625 2.691406 -32.390625 6.550781 -29.878906 L 14.445312 -24.316406 C 16.152344 -23.238281 16.421875 -22.164062 16.421875 -20.277344 L 16.421875 -11.394531 C 16.421875 -10.320312 15.613281 -9.511719 14.535156 -9.511719 C 13.460938 -9.511719 12.652344 -10.320312 12.652344 -11.394531 L 12.652344 -21.535156 L 1.347656 -21.535156 L 1.347656 -8.972656 C 1.347656 -3.949219 5.292969 0 10.320312 0 Z M 10.320312 0 "/></g></g></g><g fill="#68e831" fill-opacity="1"><g transform="translate(1177.526823, 176.569588)"><g><path d="M 2.691406 0 L 13.996094 0 L 13.996094 -50.429688 L 2.691406 -50.429688 Z M 2.691406 -54.285156 L 13.996094 -54.285156 L 13.996094 -62.808594 L 2.691406 -62.808594 Z M 2.691406 -54.285156 "/></g></g></g><g fill="#68e831" fill-opacity="1"><g transform="translate(1194.215688, 176.569588)"><g><path d="M 2.691406 0 L 21.714844 0 L 21.714844 -9.511719 L 13.996094 -9.511719 L 13.996094 -62.808594 L 2.691406 -62.808594 Z M 2.691406 0 "/></g></g></g><g fill="#ffffff" fill-opacity="1"><g transform="translate(199.167105, 95.672492)"><g><path d="M 2.289062 0 L 11.898438 0 L 11.898438 -17.007812 L 15.101562 -17.007812 L 15.101562 0 L 24.710938 0 L 24.710938 -45.761719 C 24.710938 -50.03125 21.355469 -53.386719 17.085938 -53.386719 L 9.914062 -53.386719 C 5.644531 -53.386719 2.289062 -50.03125 2.289062 -45.761719 Z M 11.898438 -25.09375 L 11.898438 -43.777344 C 11.898438 -44.695312 12.585938 -45.378906 13.5 -45.378906 C 14.414062 -45.378906 15.101562 -44.695312 15.101562 -43.777344 L 15.101562 -25.09375 Z M 11.898438 -25.09375 "/></g></g></g><g fill="#ffffff" fill-opacity="1"><g transform="translate(226.16468, 95.672492)"><g><path d="M 8.769531 0 L 15.941406 0 C 20.210938 0 23.566406 -3.355469 23.566406 -7.625 L 23.566406 -19.144531 C 23.566406 -22.726562 22.347656 -25.929688 19.296875 -27.839844 L 12.660156 -32.339844 C 11.441406 -33.175781 10.753906 -34.167969 10.753906 -36 L 10.753906 -43.777344 C 10.753906 -44.695312 11.441406 -45.378906 12.355469 -45.378906 C 13.269531 -45.378906 13.957031 -44.695312 13.957031 -43.777344 L 13.957031 -35.082031 L 23.566406 -35.082031 L 23.566406 -45.761719 C 23.566406 -50.03125 20.210938 -53.386719 15.941406 -53.386719 L 8.769531 -53.386719 C 4.5 -53.386719 1.144531 -50.03125 1.144531 -45.761719 L 1.144531 -35.007812 C 1.144531 -30.507812 2.289062 -27.53125 5.566406 -25.398438 L 12.277344 -20.667969 C 13.726562 -19.753906 13.957031 -18.839844 13.957031 -17.238281 L 13.957031 -9.6875 C 13.957031 -8.769531 13.269531 -8.085938 12.355469 -8.085938 C 11.441406 -8.085938 10.753906 -8.769531 10.753906 -9.6875 L 10.753906 -18.304688 L 1.144531 -18.304688 L 1.144531 -7.625 C 1.144531 -3.355469 4.5 0 8.769531 0 Z M 8.769531 0 "/></g></g></g><g fill="#ffffff" fill-opacity="1"><g transform="translate(250.874327, 95.672492)"><g><path d="M 8.769531 0 L 15.941406 0 C 20.210938 0 23.566406 -3.355469 23.566406 -7.625 L 23.566406 -19.144531 C 23.566406 -22.726562 22.347656 -25.929688 19.296875 -27.839844 L 12.660156 -32.339844 C 11.441406 -33.175781 10.753906 -34.167969 10.753906 -36 L 10.753906 -43.777344 C 10.753906 -44.695312 11.441406 -45.378906 12.355469 -45.378906 C 13.269531 -45.378906 13.957031 -44.695312 13.957031 -43.777344 L 13.957031 -35.082031 L 23.566406 -35.082031 L 23.566406 -45.761719 C 23.566406 -50.03125 20.210938 -53.386719 15.941406 -53.386719 L 8.769531 -53.386719 C 4.5 -53.386719 1.144531 -50.03125 1.144531 -45.761719 L 1.144531 -35.007812 C 1.144531 -30.507812 2.289062 -27.53125 5.566406 -25.398438 L 12.277344 -20.667969 C 13.726562 -19.753906 13.957031 -18.839844 13.957031 -17.238281 L 13.957031 -9.6875 C 13.957031 -8.769531 13.269531 -8.085938 12.355469 -8.085938 C 11.441406 -8.085938 10.753906 -8.769531 10.753906 -9.6875 L 10.753906 -18.304688 L 1.144531 -18.304688 L 1.144531 -7.625 C 1.144531 -3.355469 4.5 0 8.769531 0 Z M 8.769531 0 "/></g></g></g><g fill="#ffffff" fill-opacity="1"><g transform="translate(275.583975, 95.672492)"><g><path d="M 2.289062 0 L 11.898438 0 L 11.898438 -42.863281 L 2.289062 -42.863281 Z M 2.289062 -46.140625 L 11.898438 -46.140625 L 11.898438 -53.386719 L 2.289062 -53.386719 Z M 2.289062 -46.140625 "/></g></g></g><g fill="#ffffff" fill-opacity="1"><g transform="translate(289.769138, 95.672492)"><g><path d="M 8.769531 0 L 15.941406 0 C 20.210938 0 23.566406 -3.355469 23.566406 -7.625 L 23.566406 -19.144531 C 23.566406 -22.726562 22.347656 -25.929688 19.296875 -27.839844 L 12.660156 -32.339844 C 11.441406 -33.175781 10.753906 -34.167969 10.753906 -36 L 10.753906 -43.777344 C 10.753906 -44.695312 11.441406 -45.378906 12.355469 -45.378906 C 13.269531 -45.378906 13.957031 -44.695312 13.957031 -43.777344 L 13.957031 -35.082031 L 23.566406 -35.082031 L 23.566406 -45.761719 C 23.566406 -50.03125 20.210938 -53.386719 15.941406 -53.386719 L 8.769531 -53.386719 C 4.5 -53.386719 1.144531 -50.03125 1.144531 -45.761719 L 1.144531 -35.007812 C 1.144531 -30.507812 2.289062 -27.53125 5.566406 -25.398438 L 12.277344 -20.667969 C 13.726562 -19.753906 13.957031 -18.839844 13.957031 -17.238281 L 13.957031 -9.6875 C 13.957031 -8.769531 13.269531 -8.085938 12.355469 -8.085938 C 11.441406 -8.085938 10.753906 -8.769531 10.753906 -9.6875 L 10.753906 -18.304688 L 1.144531 -18.304688 L 1.144531 -7.625 C 1.144531 -3.355469 4.5 0 8.769531 0 Z M 8.769531 0 "/></g></g></g><g fill="#ffffff" fill-opacity="1"><g transform="translate(314.478785, 95.672492)"><g><path d="M 6.484375 0 L 16.09375 0 L 16.09375 -45.304688 L 21.429688 -45.304688 L 21.429688 -53.386719 L 1.144531 -53.386719 L 1.144531 -45.304688 L 6.484375 -45.304688 Z M 6.484375 0 "/></g></g></g><g fill="#ffffff" fill-opacity="1"><g transform="translate(337.053031, 95.672492)"><g><path d="M 2.289062 0 L 11.898438 0 L 11.898438 -17.007812 L 15.101562 -17.007812 L 15.101562 0 L 24.710938 0 L 24.710938 -45.761719 C 24.710938 -50.03125 21.355469 -53.386719 17.085938 -53.386719 L 9.914062 -53.386719 C 5.644531 -53.386719 2.289062 -50.03125 2.289062 -45.761719 Z M 11.898438 -25.09375 L 11.898438 -43.777344 C 11.898438 -44.695312 12.585938 -45.378906 13.5 -45.378906 C 14.414062 -45.378906 15.101562 -44.695312 15.101562 -43.777344 L 15.101562 -25.09375 Z M 11.898438 -25.09375 "/></g></g></g><g fill="#ffffff" fill-opacity="1"><g transform="translate(364.050605, 95.672492)"><g/></g></g><g fill="#ffffff" fill-opacity="1"><g transform="translate(380.828758, 95.672492)"><g><path d="M 2.289062 0 L 22.5 0 L 22.5 -8.085938 L 11.898438 -8.085938 L 11.898438 -22.804688 L 19.449219 -22.804688 L 19.449219 -30.890625 L 11.898438 -30.890625 L 11.898438 -45.304688 L 22.5 -45.304688 L 22.5 -53.386719 L 2.289062 -53.386719 Z M 2.289062 0 "/></g></g></g><g fill="#ffffff" fill-opacity="1"><g transform="translate(404.470716, 95.672492)"><g><path d="M 8.769531 0 L 15.941406 0 C 20.210938 0 23.566406 -3.355469 23.566406 -7.625 L 23.566406 -19.144531 C 23.566406 -22.726562 22.347656 -25.929688 19.296875 -27.839844 L 12.660156 -32.339844 C 11.441406 -33.175781 10.753906 -34.167969 10.753906 -36 L 10.753906 -43.777344 C 10.753906 -44.695312 11.441406 -45.378906 12.355469 -45.378906 C 13.269531 -45.378906 13.957031 -44.695312 13.957031 -43.777344 L 13.957031 -35.082031 L 23.566406 -35.082031 L 23.566406 -45.761719 C 23.566406 -50.03125 20.210938 -53.386719 15.941406 -53.386719 L 8.769531 -53.386719 C 4.5 -53.386719 1.144531 -50.03125 1.144531 -45.761719 L 1.144531 -35.007812 C 1.144531 -30.507812 2.289062 -27.53125 5.566406 -25.398438 L 12.277344 -20.667969 C 13.726562 -19.753906 13.957031 -18.839844 13.957031 -17.238281 L 13.957031 -9.6875 C 13.957031 -8.769531 13.269531 -8.085938 12.355469 -8.085938 C 11.441406 -8.085938 10.753906 -8.769531 10.753906 -9.6875 L 10.753906 -18.304688 L 1.144531 -18.304688 L 1.144531 -7.625 C 1.144531 -3.355469 4.5 0 8.769531 0 Z M 8.769531 0 "/></g></g></g><g fill="#ffffff" fill-opacity="1"><g transform="translate(429.180364, 95.672492)"><g><path d="M 8.769531 0 L 15.941406 0 C 20.210938 0 23.566406 -3.355469 23.566406 -7.625 L 23.566406 -19.144531 C 23.566406 -22.726562 22.347656 -25.929688 19.296875 -27.839844 L 12.660156 -32.339844 C 11.441406 -33.175781 10.753906 -34.167969 10.753906 -36 L 10.753906 -43.777344 C 10.753906 -44.695312 11.441406 -45.378906 12.355469 -45.378906 C 13.269531 -45.378906 13.957031 -44.695312 13.957031 -43.777344 L 13.957031 -35.082031 L 23.566406 -35.082031 L 23.566406 -45.761719 C 23.566406 -50.03125 20.210938 -53.386719 15.941406 -53.386719 L 8.769531 -53.386719 C 4.5 -53.386719 1.144531 -50.03125 1.144531 -45.761719 L 1.144531 -35.007812 C 1.144531 -30.507812 2.289062 -27.53125 5.566406 -25.398438 L 12.277344 -20.667969 C 13.726562 -19.753906 13.957031 -18.839844 13.957031 -17.238281 L 13.957031 -9.6875 C 13.957031 -8.769531 13.269531 -8.085938 12.355469 -8.085938 C 11.441406 -8.085938 10.753906 -8.769531 10.753906 -9.6875 L 10.753906 -18.304688 L 1.144531 -18.304688 L 1.144531 -7.625 C 1.144531 -3.355469 4.5 0 8.769531 0 Z M 8.769531 0 "/></g></g></g><g fill="#ffffff" fill-opacity="1"><g transform="translate(453.890012, 95.672492)"><g><path d="M 2.289062 0 L 11.898438 0 L 11.898438 -17.007812 L 15.101562 -17.007812 L 15.101562 0 L 24.710938 0 L 24.710938 -45.761719 C 24.710938 -50.03125 21.355469 -53.386719 17.085938 -53.386719 L 9.914062 -53.386719 C 5.644531 -53.386719 2.289062 -50.03125 2.289062 -45.761719 Z M 11.898438 -25.09375 L 11.898438 -43.777344 C 11.898438 -44.695312 12.585938 -45.378906 13.5 -45.378906 C 14.414062 -45.378906 15.101562 -44.695312 15.101562 -43.777344 L 15.101562 -25.09375 Z M 11.898438 -25.09375 "/></g></g></g><g fill="#ffffff" fill-opacity="1"><g transform="translate(480.887575, 95.672492)"><g/></g></g><g fill="#ffffff" fill-opacity="1"><g transform="translate(497.665716, 95.672492)"><g><path d="M 9.914062 0 L 17.085938 0 C 21.355469 0 24.710938 -3.355469 24.710938 -7.625 L 24.710938 -22.652344 L 15.101562 -22.652344 L 15.101562 -9.6875 C 15.101562 -8.769531 14.414062 -8.085938 13.5 -8.085938 C 12.585938 -8.085938 11.898438 -8.769531 11.898438 -9.6875 L 11.898438 -43.777344 C 11.898438 -44.695312 12.585938 -45.378906 13.5 -45.378906 C 14.414062 -45.378906 15.101562 -44.695312 15.101562 -43.777344 L 15.101562 -30.734375 L 24.710938 -30.734375 L 24.710938 -45.761719 C 24.710938 -50.03125 21.355469 -53.386719 17.085938 -53.386719 L 9.914062 -53.386719 C 5.644531 -53.386719 2.289062 -50.03125 2.289062 -45.761719 L 2.289062 -7.625 C 2.289062 -3.355469 5.644531 0 9.914062 0 Z M 9.914062 0 "/></g></g></g><g fill="#ffffff" fill-opacity="1"><g transform="translate(524.663279, 95.672492)"><g><path d="M 9.914062 0 L 17.085938 0 C 21.355469 0 24.710938 -3.355469 24.710938 -7.625 L 24.710938 -53.464844 L 15.101562 -53.464844 L 15.101562 -9.6875 C 15.101562 -8.769531 14.414062 -8.085938 13.5 -8.085938 C 12.585938 -8.085938 11.898438 -8.769531 11.898438 -9.6875 L 11.898438 -53.464844 L 2.289062 -53.464844 L 2.289062 -7.625 C 2.289062 -3.355469 5.644531 0 9.914062 0 Z M 9.914062 0 "/></g></g></g><g fill="#ffffff" fill-opacity="1"><g transform="translate(551.660843, 95.672492)"><g><path d="M 2.289062 0 L 11.898438 0 L 11.898438 -17.390625 L 15.101562 -17.390625 L 15.101562 0 L 24.710938 0 L 24.710938 -15.863281 C 24.480469 -18.535156 22.878906 -20.667969 20.515625 -21.8125 C 22.878906 -22.804688 24.480469 -25.09375 24.710938 -27.761719 L 24.710938 -45.761719 C 24.710938 -50.03125 21.355469 -53.386719 17.085938 -53.386719 L 2.289062 -53.386719 Z M 11.898438 -25.472656 L 11.898438 -45.378906 L 13.5 -45.378906 C 14.414062 -45.378906 15.101562 -44.695312 15.101562 -43.777344 L 15.101562 -27.074219 C 15.101562 -26.160156 14.414062 -25.472656 13.5 -25.472656 Z M 11.898438 -25.472656 "/></g></g></g><g fill="#ffffff" fill-opacity="1"><g transform="translate(578.658406, 95.672492)"><g><path d="M 6.484375 0 L 16.09375 0 L 16.09375 -45.304688 L 21.429688 -45.304688 L 21.429688 -53.386719 L 1.144531 -53.386719 L 1.144531 -45.304688 L 6.484375 -45.304688 Z M 6.484375 0 "/></g></g></g><g fill="#ffffff" fill-opacity="1"><g transform="translate(601.232629, 95.672492)"><g><path d="M 2.289062 0 L 11.898438 0 L 11.898438 -17.007812 L 15.101562 -17.007812 L 15.101562 0 L 24.710938 0 L 24.710938 -45.761719 C 24.710938 -50.03125 21.355469 -53.386719 17.085938 -53.386719 L 9.914062 -53.386719 C 5.644531 -53.386719 2.289062 -50.03125 2.289062 -45.761719 Z M 11.898438 -25.09375 L 11.898438 -43.777344 C 11.898438 -44.695312 12.585938 -45.378906 13.5 -45.378906 C 14.414062 -45.378906 15.101562 -44.695312 15.101562 -43.777344 L 15.101562 -25.09375 Z M 11.898438 -25.09375 "/></g></g></g><g fill="#ffffff" fill-opacity="1"><g transform="translate(628.230192, 95.672492)"><g/></g></g><g fill="#ffffff" fill-opacity="1"><g transform="translate(645.008334, 95.672492)"><g><path d="M 2.289062 0 L 11.898438 0 L 11.898438 -17.007812 L 15.101562 -17.007812 L 15.101562 0 L 24.710938 0 L 24.710938 -45.761719 C 24.710938 -50.03125 21.355469 -53.386719 17.085938 -53.386719 L 9.914062 -53.386719 C 5.644531 -53.386719 2.289062 -50.03125 2.289062 -45.761719 Z M 11.898438 -25.09375 L 11.898438 -43.777344 C 11.898438 -44.695312 12.585938 -45.378906 13.5 -45.378906 C 14.414062 -45.378906 15.101562 -44.695312 15.101562 -43.777344 L 15.101562 -25.09375 Z M 11.898438 -25.09375 "/></g></g></g><g fill="#ffffff" fill-opacity="1"><g transform="translate(672.005897, 95.672492)"><g><path d="M 2.289062 0 L 11.898438 0 L 11.898438 -17.390625 L 17.085938 -17.390625 C 21.355469 -17.390625 24.710938 -20.746094 24.710938 -25.015625 L 24.710938 -45.761719 C 24.710938 -50.03125 21.355469 -53.386719 17.085938 -53.386719 L 2.289062 -53.386719 Z M 11.898438 -25.472656 L 11.898438 -45.378906 L 13.5 -45.378906 C 14.414062 -45.378906 15.101562 -44.695312 15.101562 -43.777344 L 15.101562 -27.074219 C 15.101562 -26.160156 14.414062 -25.472656 13.5 -25.472656 Z M 11.898438 -25.472656 "/></g></g></g><g fill="#ffffff" fill-opacity="1"><g transform="translate(699.00346, 95.672492)"><g><path d="M 2.289062 0 L 11.898438 0 L 11.898438 -17.390625 L 15.101562 -17.390625 L 15.101562 0 L 24.710938 0 L 24.710938 -15.863281 C 24.480469 -18.535156 22.878906 -20.667969 20.515625 -21.8125 C 22.878906 -22.804688 24.480469 -25.09375 24.710938 -27.761719 L 24.710938 -45.761719 C 24.710938 -50.03125 21.355469 -53.386719 17.085938 -53.386719 L 2.289062 -53.386719 Z M 11.898438 -25.472656 L 11.898438 -45.378906 L 13.5 -45.378906 C 14.414062 -45.378906 15.101562 -44.695312 15.101562 -43.777344 L 15.101562 -27.074219 C 15.101562 -26.160156 14.414062 -25.472656 13.5 -25.472656 Z M 11.898438 -25.472656 "/></g></g></g><g fill="#ffffff" fill-opacity="1"><g transform="translate(726.001024, 95.672492)"><g><path d="M 2.289062 0 L 22.5 0 L 22.5 -8.085938 L 11.898438 -8.085938 L 11.898438 -22.804688 L 19.449219 -22.804688 L 19.449219 -30.890625 L 11.898438 -30.890625 L 11.898438 -45.304688 L 22.5 -45.304688 L 22.5 -53.386719 L 2.289062 -53.386719 Z M 2.289062 0 "/></g></g></g><g fill="#ffffff" fill-opacity="1"><g transform="translate(749.642958, 95.672492)"><g><path d="M 8.769531 0 L 15.941406 0 C 20.210938 0 23.566406 -3.355469 23.566406 -7.625 L 23.566406 -19.144531 C 23.566406 -22.726562 22.347656 -25.929688 19.296875 -27.839844 L 12.660156 -32.339844 C 11.441406 -33.175781 10.753906 -34.167969 10.753906 -36 L 10.753906 -43.777344 C 10.753906 -44.695312 11.441406 -45.378906 12.355469 -45.378906 C 13.269531 -45.378906 13.957031 -44.695312 13.957031 -43.777344 L 13.957031 -35.082031 L 23.566406 -35.082031 L 23.566406 -45.761719 C 23.566406 -50.03125 20.210938 -53.386719 15.941406 -53.386719 L 8.769531 -53.386719 C 4.5 -53.386719 1.144531 -50.03125 1.144531 -45.761719 L 1.144531 -35.007812 C 1.144531 -30.507812 2.289062 -27.53125 5.566406 -25.398438 L 12.277344 -20.667969 C 13.726562 -19.753906 13.957031 -18.839844 13.957031 -17.238281 L 13.957031 -9.6875 C 13.957031 -8.769531 13.269531 -8.085938 12.355469 -8.085938 C 11.441406 -8.085938 10.753906 -8.769531 10.753906 -9.6875 L 10.753906 -18.304688 L 1.144531 -18.304688 L 1.144531 -7.625 C 1.144531 -3.355469 4.5 0 8.769531 0 Z M 8.769531 0 "/></g></g></g><g fill="#ffffff" fill-opacity="1"><g transform="translate(774.352606, 95.672492)"><g><path d="M 2.289062 0 L 22.5 0 L 22.5 -8.085938 L 11.898438 -8.085938 L 11.898438 -22.804688 L 19.449219 -22.804688 L 19.449219 -30.890625 L 11.898438 -30.890625 L 11.898438 -45.304688 L 22.5 -45.304688 L 22.5 -53.386719 L 2.289062 -53.386719 Z M 2.289062 0 "/></g></g></g><g fill="#ffffff" fill-opacity="1"><g transform="translate(797.994541, 95.672492)"><g><path d="M 2.289062 0 L 11.898438 0 L 11.898438 -23.644531 L 15.636719 0 L 24.710938 0 L 24.710938 -53.386719 L 15.023438 -53.386719 L 15.023438 -29.746094 L 11.210938 -53.386719 L 2.289062 -53.386719 Z M 2.289062 0 "/></g></g></g><g fill="#ffffff" fill-opacity="1"><g transform="translate(824.992104, 95.672492)"><g><path d="M 6.484375 0 L 16.09375 0 L 16.09375 -45.304688 L 21.429688 -45.304688 L 21.429688 -53.386719 L 1.144531 -53.386719 L 1.144531 -45.304688 L 6.484375 -45.304688 Z M 6.484375 0 "/></g></g></g><g fill="#ffffff" fill-opacity="1"><g transform="translate(847.566327, 95.672492)"><g><path d="M 2.289062 0 L 11.898438 0 L 11.898438 -17.007812 L 15.101562 -17.007812 L 15.101562 0 L 24.710938 0 L 24.710938 -45.761719 C 24.710938 -50.03125 21.355469 -53.386719 17.085938 -53.386719 L 9.914062 -53.386719 C 5.644531 -53.386719 2.289062 -50.03125 2.289062 -45.761719 Z M 11.898438 -25.09375 L 11.898438 -43.777344 C 11.898438 -44.695312 12.585938 -45.378906 13.5 -45.378906 C 14.414062 -45.378906 15.101562 -44.695312 15.101562 -43.777344 L 15.101562 -25.09375 Z M 11.898438 -25.09375 "/></g></g></g><g fill="#ffffff" fill-opacity="1"><g transform="translate(874.56389, 95.672492)"><g><path d="M 9.914062 0 L 17.085938 0 C 21.355469 0 24.710938 -3.355469 24.710938 -7.625 L 24.710938 -22.652344 L 15.101562 -22.652344 L 15.101562 -9.6875 C 15.101562 -8.769531 14.414062 -8.085938 13.5 -8.085938 C 12.585938 -8.085938 11.898438 -8.769531 11.898438 -9.6875 L 11.898438 -43.777344 C 11.898438 -44.695312 12.585938 -45.378906 13.5 -45.378906 C 14.414062 -45.378906 15.101562 -44.695312 15.101562 -43.777344 L 15.101562 -30.734375 L 24.710938 -30.734375 L 24.710938 -45.761719 C 24.710938 -50.03125 21.355469 -53.386719 17.085938 -53.386719 L 9.914062 -53.386719 C 5.644531 -53.386719 2.289062 -50.03125 2.289062 -45.761719 L 2.289062 -7.625 C 2.289062 -3.355469 5.644531 0 9.914062 0 Z M 6.484375 12.8125 C 9.382812 14.109375 15.710938 16.167969 19.371094 12.507812 C 23.414062 9 20.820312 0.914062 14.339844 2.820312 L 13.957031 2.59375 L 15.710938 -2.058594 L 11.136719 -2.058594 L 8.3125 4.882812 L 9.761719 6.253906 C 16.472656 3.964844 14.492188 12.8125 7.398438 9.152344 Z M 6.484375 12.8125 "/></g></g></g><g fill="#ffffff" fill-opacity="1"><g transform="translate(901.561454, 95.672492)"><g><path d="M 2.289062 0 L 11.898438 0 L 11.898438 -17.007812 L 15.101562 -17.007812 L 15.101562 0 L 24.710938 0 L 24.710938 -45.761719 C 24.710938 -50.03125 21.355469 -53.386719 17.085938 -53.386719 L 9.914062 -53.386719 C 5.644531 -53.386719 2.289062 -50.03125 2.289062 -45.761719 Z M 11.898438 -25.09375 L 11.898438 -43.777344 C 11.898438 -44.695312 12.585938 -45.378906 13.5 -45.378906 C 14.414062 -45.378906 15.101562 -44.695312 15.101562 -43.777344 L 15.101562 -25.09375 Z M 8.007812 -56.363281 C 10.523438 -59.335938 11.898438 -59.03125 14.414062 -57.429688 C 18.6875 -55.449219 21.125 -57.8125 22.421875 -60.9375 L 18.992188 -64.371094 C 18.304688 -61.855469 16.855469 -61.929688 14.492188 -62.996094 C 10.296875 -64.90625 7.933594 -65.132812 4.574219 -59.640625 Z M 8.007812 -56.363281 "/></g></g></g><g fill="#ffffff" fill-opacity="1"><g transform="translate(928.559017, 95.672492)"><g><path d="M 9.914062 0 L 17.085938 0 C 21.355469 0 24.710938 -3.355469 24.710938 -7.625 L 24.710938 -45.761719 C 24.710938 -50.03125 21.355469 -53.386719 17.085938 -53.386719 L 9.914062 -53.386719 C 5.644531 -53.386719 2.289062 -50.03125 2.289062 -45.761719 L 2.289062 -7.625 C 2.289062 -3.355469 5.644531 0 9.914062 0 Z M 13.5 -8.085938 C 12.585938 -8.085938 11.898438 -8.769531 11.898438 -9.6875 L 11.898438 -43.777344 C 11.898438 -44.695312 12.585938 -45.378906 13.5 -45.378906 C 14.414062 -45.378906 15.101562 -44.695312 15.101562 -43.777344 L 15.101562 -9.6875 C 15.101562 -8.769531 14.414062 -8.085938 13.5 -8.085938 Z M 13.5 -8.085938 "/></g></g></g><g fill="#ffffff" fill-opacity="1"><g transform="translate(955.55658, 95.672492)"><g/></g></g><g fill="#ffffff" fill-opacity="1"><g transform="translate(972.334721, 95.672492)"><g><path d="M 2.289062 0 L 17.085938 0 C 21.355469 0 24.710938 -3.355469 24.710938 -7.625 L 24.710938 -45.761719 C 24.710938 -50.03125 21.355469 -53.386719 17.085938 -53.386719 L 2.289062 -53.386719 Z M 11.898438 -8.085938 L 11.898438 -45.378906 L 13.5 -45.378906 C 14.414062 -45.378906 15.101562 -44.695312 15.101562 -43.777344 L 15.101562 -9.6875 C 15.101562 -8.769531 14.414062 -8.085938 13.5 -8.085938 Z M 11.898438 -8.085938 "/></g></g></g><g fill="#ffffff" fill-opacity="1"><g transform="translate(999.332285, 95.672492)"><g><path d="M 9.914062 0 L 17.085938 0 C 21.355469 0 24.710938 -3.355469 24.710938 -7.625 L 24.710938 -45.761719 C 24.710938 -50.03125 21.355469 -53.386719 17.085938 -53.386719 L 9.914062 -53.386719 C 5.644531 -53.386719 2.289062 -50.03125 2.289062 -45.761719 L 2.289062 -7.625 C 2.289062 -3.355469 5.644531 0 9.914062 0 Z M 13.5 -8.085938 C 12.585938 -8.085938 11.898438 -8.769531 11.898438 -9.6875 L 11.898438 -43.777344 C 11.898438 -44.695312 12.585938 -45.378906 13.5 -45.378906 C 14.414062 -45.378906 15.101562 -44.695312 15.101562 -43.777344 L 15.101562 -9.6875 C 15.101562 -8.769531 14.414062 -8.085938 13.5 -8.085938 Z M 13.5 -8.085938 "/></g></g></g></svg>